<?xml version="1.0" standalone="no"?>
<!DOCTYPE svg PUBLIC "-//W3C//DTD SVG 20010904//EN"
 "http://www.w3.org/TR/2001/REC-SVG-20010904/DTD/svg10.dtd">
<svg version="1.0" xmlns="http://www.w3.org/2000/svg"
 width="752.000000pt" height="572.000000pt" viewBox="0 0 752.000000 572.000000"
 preserveAspectRatio="xMidYMid meet">
<metadata>
Created by potrace 1.16, written by Peter Selinger 2001-2019
</metadata>
<g transform="translate(0.000000,572.000000) scale(0.100000,-0.100000)"
fill="#000000" stroke="none">
<path d="M2634 5479 c-421 -40 -792 -184 -1040 -403 -187 -166 -304 -395 -321
-634 -5 -75 -4 -85 15 -105 21 -22 21 -22 2 -77 -22 -63 -24 -120 -6 -170 9
-28 9 -45 -1 -85 -9 -37 -13 -158 -13 -456 0 -386 1 -408 19 -430 19 -24 20
-24 286 -29 l267 -5 17 -55 c28 -88 60 -141 128 -212 204 -210 529 -211 738
-2 61 61 124 170 140 242 l7 32 955 -2 955 -3 17 -55 c29 -91 60 -141 135
-216 107 -107 220 -154 370 -154 226 0 435 164 495 388 l12 42 208 0 c191 0
211 2 232 19 l24 19 0 304 c0 274 -2 308 -19 352 -30 79 -83 126 -247 222
l-149 88 -86 260 c-47 144 -131 398 -186 566 -107 327 -120 351 -187 370 -22
6 -337 10 -827 10 l-792 0 -56 25 c-290 128 -726 190 -1092 154z m477 -139
c302 -31 603 -131 811 -271 92 -62 237 -211 288 -298 50 -84 96 -206 106 -281
l7 -50 -1466 0 -1466 0 6 38 c54 372 354 650 856 791 103 29 306 67 397 74
104 8 365 6 461 -3z m1820 -170 l448 0 181 -552 c100 -304 186 -564 191 -579
7 -18 55 -52 173 -121 161 -96 216 -141 216 -179 0 -17 -7 -19 -60 -19 -71 0
-114 -16 -152 -56 -40 -43 -48 -75 -48 -191 0 -145 -2 -143 152 -143 l119 0
-3 -57 -3 -58 -154 -3 c-85 -1 -158 1 -163 6 -4 4 -12 32 -18 62 -34 179 -183
346 -358 400 -77 24 -212 27 -291 5 -145 -38 -275 -145 -335 -277 -26 -56 -56
-160 -56 -195 0 -2 -425 -3 -945 -3 l-944 0 -6 38 c-4 20 -7 44 -8 52 -2 13
81 16 673 20 669 5 675 5 723 27 65 30 142 113 168 182 21 54 21 69 20 491 -1
444 -5 495 -43 618 -54 177 -193 378 -337 487 -28 21 -47 43 -44 48 4 7 87 8
231 4 124 -4 427 -7 673 -7z m-721 -861 c135 -31 160 -202 40 -264 -54 -28
-77 -20 -154 55 -79 76 -124 100 -188 100 -65 -1 -123 -32 -190 -104 -33 -36
-69 -68 -79 -71 -39 -13 -86 15 -149 86 -78 88 -123 112 -210 112 -87 1 -135
-25 -196 -104 -25 -33 -61 -69 -78 -80 -67 -41 -155 -12 -229 74 -64 75 -134
111 -217 111 -115 1 -175 -34 -230 -130 -40 -69 -57 -78 -138 -71 -51 4 -73
11 -106 36 -105 78 -125 86 -211 86 -86 0 -106 -8 -212 -87 -43 -32 -116 -47
-167 -34 -67 17 -115 98 -102 170 9 46 58 103 100 115 45 13 2659 13 2716 0z
m-2751 -686 c56 -28 57 -28 294 -31 130 -2 237 -6 237 -11 0 -4 -12 -18 -26
-32 -14 -13 -37 -43 -51 -66 l-25 -43 -166 0 c-190 0 -226 10 -279 74 -36 44
-68 136 -46 136 3 0 31 -12 62 -27z m2851 -38 c-16 -49 -57 -95 -105 -116 -37
-17 -82 -19 -707 -19 l-668 0 -24 38 c-14 20 -34 48 -45 62 l-20 25 737 5 737
5 50 25 c28 14 51 22 53 18 2 -4 -2 -24 -8 -43z m1850 -60 l0 -75 -80 0 -80 0
0 53 c0 80 17 97 96 97 l64 0 0 -75z m-3635 20 c120 -58 204 -173 227 -310 28
-167 -68 -341 -229 -418 -62 -29 -76 -32 -168 -32 -93 0 -105 2 -166 32 -127
63 -209 174 -230 315 -10 62 -9 83 5 138 36 141 127 242 259 291 81 29 222 22
302 -16z m2936 2 c310 -149 311 -583 1 -730 -61 -29 -75 -32 -167 -32 -93 0
-105 2 -166 32 -196 97 -284 308 -209 504 42 111 131 199 240 239 83 30 224
24 301 -13z m-4008 -196 c64 -30 139 -41 280 -41 l117 0 -5 -25 c-3 -14 -7
-36 -10 -50 l-5 -25 -218 2 -217 3 -3 83 c-2 46 1 82 5 80 4 -2 29 -14 56 -27z"/>
<path d="M4616 5059 l-26 -20 0 -423 c0 -417 0 -423 21 -442 20 -18 44 -19
448 -22 421 -3 428 -2 454 18 15 12 27 31 27 43 0 12 -57 195 -127 406 -138
414 -146 430 -219 450 -23 7 -140 11 -295 11 -244 0 -258 -1 -283 -21z m667
-436 c59 -181 107 -331 107 -335 0 -5 -153 -8 -340 -8 l-340 0 0 335 0 335
233 0 233 0 107 -327z"/>
<path d="M2234 3466 c-64 -30 -117 -76 -139 -122 -15 -32 -15 -37 -1 -60 27
-40 73 -33 116 17 25 29 51 46 90 59 33 11 63 29 75 45 18 24 18 28 4 53 -20
37 -76 41 -145 8z"/>
<path d="M2498 3403 c-28 -33 -27 -51 4 -98 17 -26 34 -65 38 -87 22 -118 -71
-228 -192 -228 -52 0 -78 -21 -78 -63 0 -42 38 -61 109 -54 73 6 136 34 190
83 122 109 130 313 18 432 -34 36 -66 41 -89 15z"/>
<path d="M5175 3462 c-196 -93 -240 -342 -88 -498 52 -53 119 -85 193 -91 45
-4 65 -2 84 10 33 22 41 52 22 81 -12 20 -25 24 -79 28 -80 5 -137 39 -168
100 -26 51 -28 131 -5 176 21 41 78 87 126 101 59 18 77 64 40 101 -27 27 -54
25 -125 -8z"/>
<path d="M5424 3415 c-31 -31 -26 -54 22 -107 18 -20 38 -55 44 -77 22 -84
120 -80 120 5 0 44 -45 127 -91 168 -46 43 -62 44 -95 11z"/>
<path d="M310 2170 c-11 -11 -23 -32 -26 -47 -4 -15 -8 -193 -8 -394 -1 -347
0 -368 18 -388 14 -15 31 -21 62 -21 70 0 78 21 83 217 l3 163 148 0 148 0 4
-169 c4 -197 9 -211 84 -211 36 0 47 5 61 27 16 25 18 63 21 415 3 379 2 388
-18 408 -21 21 -69 27 -99 10 -29 -15 -39 -57 -45 -195 -4 -71 -10 -132 -14
-136 -4 -3 -71 -4 -149 -1 l-143 4 0 149 c0 136 -2 151 -20 169 -26 26 -83 27
-110 0z"/>
<path d="M1734 2172 c-31 -21 -34 -54 -34 -420 0 -358 1 -370 21 -396 16 -20
29 -26 58 -26 49 0 70 17 81 65 10 41 12 654 3 712 -7 47 -37 73 -81 73 -20 0
-42 -4 -48 -8z"/>
<path d="M4021 2163 c-34 -28 -42 -131 -39 -489 3 -290 4 -313 22 -333 24 -27
76 -28 107 -2 23 18 24 26 29 188 l5 168 178 5 c162 5 180 7 193 24 29 40 12
88 -37 105 -18 6 -98 11 -180 11 l-149 0 0 100 0 100 183 0 c149 0 187 3 205
16 28 19 29 63 3 95 -19 24 -21 24 -258 27 -219 3 -241 1 -262 -15z"/>
<path d="M6294 2170 c-32 -13 -37 -33 -42 -186 l-4 -141 -76 -7 c-148 -12
-230 -89 -240 -224 -6 -94 17 -171 67 -221 55 -55 119 -74 253 -75 99 0 110 1
130 22 l23 23 0 385 0 386 -28 24 c-29 25 -48 28 -83 14z m-75 -476 l31 -6 0
-109 c0 -106 -1 -109 -24 -115 -32 -8 -99 12 -121 36 -11 12 -20 41 -23 73 -3
43 0 57 18 80 33 42 63 52 119 41z"/>
<path d="M1989 2154 c-16 -20 -15 -79 2 -100 24 -29 48 -36 83 -24 45 15 63
49 46 90 -7 17 -21 35 -31 40 -28 15 -85 12 -100 -6z"/>
<path d="M6526 2148 c-58 -82 55 -171 119 -95 27 30 24 59 -8 95 -28 31 -90
31 -111 0z"/>
<path d="M2426 2117 c-67 -21 -95 -81 -96 -209 l0 -58 -38 0 c-45 0 -72 -24
-72 -63 0 -37 25 -57 71 -57 l39 0 0 -176 c0 -211 7 -234 76 -234 19 0 38 8
50 21 17 19 20 42 24 203 l5 181 40 3 c49 4 75 26 75 62 0 36 -17 49 -74 56
l-46 7 0 51 c0 62 12 76 60 76 85 0 104 103 25 135 -41 18 -85 18 -139 2z"/>
<path d="M2022 1922 c-49 -7 -57 -40 -58 -247 -3 -290 11 -345 82 -345 25 0
38 7 51 27 16 24 18 55 18 279 0 189 -3 255 -13 266 -14 18 -45 25 -80 20z"/>
<path d="M6526 1905 c-24 -25 -28 -69 -24 -298 3 -201 4 -218 24 -244 29 -39
79 -39 108 0 20 27 21 40 21 270 0 281 -2 287 -70 287 -26 0 -50 -6 -59 -15z"/>
<path d="M4811 1900 c-23 -5 -62 -21 -86 -34 -95 -56 -139 -151 -133 -286 4
-74 9 -92 36 -135 56 -91 126 -127 248 -128 64 0 91 5 127 22 202 98 209 426
11 533 -57 31 -136 42 -203 28z m128 -175 c80 -41 69 -188 -17 -238 -67 -39
-163 7 -177 86 -22 116 92 205 194 152z"/>
<path d="M5481 1900 c-57 -12 -124 -53 -156 -95 -73 -95 -87 -241 -35 -346 23
-44 88 -103 137 -125 59 -25 189 -23 246 5 164 79 209 325 86 474 -60 72 -175
108 -278 87z m135 -179 c41 -25 62 -93 44 -145 -27 -83 -83 -117 -159 -96
-141 38 -105 260 43 260 23 0 55 -9 72 -19z"/>
<path d="M3378 1889 c-12 -7 -18 -22 -18 -48 0 -39 24 -79 90 -151 79 -86 77
-68 14 -146 -91 -113 -109 -159 -78 -202 34 -50 109 -11 189 97 17 22 35 41
42 41 6 0 32 -24 57 -54 58 -67 113 -106 152 -106 38 0 54 16 54 52 0 35 -16
61 -97 159 -35 43 -63 81 -63 86 0 4 25 37 57 73 95 109 109 143 77 188 -11
16 -25 22 -51 22 -30 0 -44 -8 -88 -52 -28 -29 -61 -66 -73 -82 l-22 -29 -78
82 c-68 72 -81 81 -112 81 -19 0 -43 -5 -52 -11z"/>
<path d="M6957 1889 c-56 -13 -90 -33 -130 -78 -44 -49 -67 -122 -67 -215 0
-175 94 -266 275 -266 64 0 153 22 191 46 32 21 49 67 35 93 -16 30 -49 35
-118 17 -114 -30 -202 -14 -232 42 -15 29 -5 32 69 26 37 -4 106 -3 154 1 70
5 92 11 114 30 24 21 27 30 26 87 -1 69 -16 108 -61 150 -58 56 -176 87 -256
67z m150 -152 c57 -53 44 -64 -77 -65 -111 -1 -130 9 -94 50 50 55 120 61 171
15z"/>
<path d="M1198 1857 c-26 -8 -55 -20 -65 -27 -89 -68 -125 -141 -125 -257 0
-122 51 -197 154 -228 98 -29 194 -15 252 35 l33 29 32 -34 c24 -26 41 -35 66
-35 68 0 76 65 22 188 -19 42 -42 107 -52 144 -38 148 -171 226 -317 185z
m139 -152 c50 -35 54 -139 7 -194 -32 -39 -77 -48 -131 -26 -34 14 -45 25 -58
59 -34 89 22 176 114 176 26 0 56 -7 68 -15z"/>
<path d="M2843 1852 c-75 -27 -118 -64 -149 -129 -24 -49 -28 -71 -28 -143 -1
-69 3 -93 21 -125 44 -82 121 -125 227 -125 63 0 109 14 153 46 17 13 34 24
37 24 2 0 18 -13 34 -30 36 -36 80 -40 107 -10 23 25 15 90 -19 158 -14 27
-36 88 -49 137 -16 54 -36 101 -55 123 -62 78 -181 109 -279 74z m150 -152
c67 -53 47 -187 -32 -220 -46 -19 -117 3 -142 44 -35 58 -14 151 40 181 39 21
104 19 134 -5z"/>
<path d="M5731 855 c-87 -35 -101 -46 -101 -82 0 -41 27 -56 92 -49 l58 7 0
-249 c0 -274 2 -283 58 -284 64 -2 63 -5 62 352 0 245 -3 326 -13 332 -24 15
-73 7 -156 -27z"/>
<path d="M4106 860 c-27 -11 -59 -29 -72 -41 -29 -27 -64 -97 -64 -127 0 -50
74 -82 104 -44 70 84 94 102 135 102 83 0 127 -63 96 -137 -20 -48 -46 -75
-171 -178 -132 -109 -154 -136 -154 -186 0 -24 5 -39 13 -40 6 -1 106 -1 220
-1 224 1 237 3 237 52 0 51 -24 60 -156 61 l-119 0 29 22 c83 62 179 153 200
190 48 82 43 194 -11 266 -56 74 -184 101 -287 61z"/>
<path d="M4672 855 c-171 -87 -202 -413 -55 -576 71 -79 157 -98 248 -55 74
34 111 76 135 154 41 129 27 293 -33 393 -40 67 -92 98 -179 105 -55 5 -70 2
-116 -21z m175 -137 c73 -69 69 -298 -8 -362 -41 -35 -80 -33 -123 4 -45 40
-60 87 -60 186 2 134 53 211 133 199 19 -2 45 -14 58 -27z"/>
<path d="M5230 859 c-56 -25 -86 -53 -111 -101 -36 -70 -16 -128 44 -128 21 0
35 11 62 48 55 77 126 95 184 46 26 -21 31 -33 31 -68 0 -61 -34 -102 -181
-223 -68 -56 -132 -115 -141 -131 -21 -35 -23 -77 -6 -88 6 -4 108 -7 227 -7
195 1 216 3 228 19 17 24 16 45 -3 72 -14 21 -22 22 -135 22 -65 0 -119 3
-119 8 0 4 22 22 49 40 81 55 167 145 186 195 26 68 18 171 -17 224 -56 85
-195 119 -298 72z"/>
<path d="M1724 861 c-41 -10 -85 -38 -106 -66 -25 -33 -42 -105 -34 -145 17
-91 72 -130 209 -149 91 -13 134 -32 147 -67 15 -39 -11 -91 -54 -109 -69 -29
-115 -15 -189 59 -31 32 -42 37 -65 32 -69 -17 -68 -89 5 -158 44 -42 98 -60
178 -60 159 1 265 85 265 209 -1 112 -67 176 -202 195 -40 5 -90 14 -111 19
-74 19 -73 95 0 126 53 22 122 12 177 -27 50 -34 77 -38 101 -14 38 38 -25
124 -109 149 -52 16 -159 18 -212 6z"/>
<path d="M2179 651 c-24 -19 -24 -20 -23 -198 1 -199 5 -227 35 -244 37 -19
67 -3 80 43 13 51 9 382 -6 397 -22 21 -61 22 -86 2z"/>
<path d="M2387 642 c-15 -16 -17 -46 -17 -211 0 -190 0 -192 25 -216 57 -58
85 -18 85 125 0 64 5 115 13 130 26 52 104 62 130 16 6 -11 14 -73 17 -138 4
-74 11 -122 19 -132 16 -19 64 -21 79 -3 15 18 22 140 13 240 -10 103 -25 131
-91 165 -54 27 -84 28 -135 2 -22 -11 -40 -20 -41 -20 -1 0 -5 11 -8 24 -5 21
-30 35 -62 36 -6 0 -18 -8 -27 -18z"/>
<path d="M3425 640 c-97 -22 -145 -82 -161 -198 -9 -70 10 -142 48 -181 61
-62 191 -77 291 -33 47 21 63 47 52 83 -7 20 -11 21 -64 14 -103 -15 -167 -12
-190 9 -44 39 -29 46 99 46 115 0 122 1 145 25 44 43 28 136 -33 187 -47 39
-131 61 -187 48z"/>
<path d="M2978 616 c-100 -27 -148 -97 -148 -213 0 -68 18 -110 63 -150 76
-67 209 -70 279 -6 22 20 23 66 2 84 -13 10 -24 9 -65 -5 -88 -32 -159 2 -159
76 0 92 66 135 140 93 41 -23 79 -19 92 11 34 74 -90 141 -204 110z"/>
</g>
</svg>
